<?xml version="1.0" encoding="UTF-8" standalone="no"?>
<svg
   width="1440.1565"
   height="221.21109"
   viewBox="0 0 1440.1566 221.21109"
   version="1.1"
   id="svg3"
   sodipodi:docname="Strataflow Logo Long Simple.svg"
   inkscape:version="1.4.2 (f4327f4, 2025-05-13)"
   xmlns:inkscape="http://www.inkscape.org/namespaces/inkscape"
   xmlns:sodipodi="http://sodipodi.sourceforge.net/DTD/sodipodi-0.dtd"
   xmlns="http://www.w3.org/2000/svg"
   xmlns:svg="http://www.w3.org/2000/svg">
  <defs
     id="defs3">
    <marker
       style="overflow:visible"
       id="Dot"
       refX="0"
       refY="0"
       orient="auto"
       inkscape:stockid="Dot"
       markerWidth="1"
       markerHeight="1"
       viewBox="0 0 1 1"
       inkscape:isstock="true"
       inkscape:collect="always"
       preserveAspectRatio="xMidYMid">
      <path
         transform="scale(0.5)"
         style="fill:context-stroke;fill-rule:evenodd;stroke:none"
         d="M 5,0 C 5,2.76 2.76,5 0,5 -2.76,5 -5,2.76 -5,0 c 0,-2.76 2.3,-5 5,-5 2.76,0 5,2.24 5,5 z"
         sodipodi:nodetypes="sssss"
         id="path17" />
    </marker>
    <inkscape:path-effect
       effect="fillet_chamfer"
       id="path-effect6"
       is_visible="true"
       lpeversion="1"
       nodesatellites_param="F,0,0,1,0,0,0,1 @ F,0,0,1,0,0,0,1 @ F,0,0,1,0,0,0,1 @ F,0,0,1,0,0,0,1 @ F,0,0,1,0,0,0,1 @ F,0,0,1,0,0,0,1 @ F,0,0,1,0,0,0,1 @ C,0,0,1,0,0,0,1 @ F,0,0,1,0,0,0,1 @ F,0,0,1,0,0,0,1 @ F,0,0,1,0,0,0,1 @ F,0,0,1,0,0,0,1 @ F,0,0,1,0,0,0,1 @ F,0,0,1,0,0,0,1 @ F,0,0,1,0,0,0,1 @ F,0,0,1,0,0,0,1 @ F,0,0,1,0,0,0,1 @ F,0,0,1,0,0,0,1 @ F,0,0,1,0,0,0,1 @ F,0,0,1,0,0,0,1 @ F,0,0,1,0,0,0,1 @ F,0,0,1,0,0,0,1 @ F,0,0,1,0,0,0,1 @ F,0,0,1,0,0,0,1 @ F,0,0,1,0,0,0,1 @ F,0,0,1,0,0,0,1 @ F,0,0,1,0,0,0,1 | F,0,0,1,0,0,0,1 @ F,0,0,1,0,0,0,1 @ F,0,0,1,0,0,0,1 @ F,0,0,1,0,0,0,1 @ F,0,0,1,0,0,0,1 @ F,0,0,1,0,0,0,1 @ F,0,0,1,0,0,0,1 @ F,0,0,1,0,0,0,1 @ F,0,0,1,0,0,0,1 @ F,0,0,1,0,0,0,1 @ F,0,0,1,0,0,0,1 @ F,0,0,1,0,0,0,1 | F,0,0,1,0,0,0,1 @ F,0,0,1,0,0,0,1 @ F,0,0,1,0,0,0,1 @ F,0,0,1,0,0,0,1 @ F,0,0,1,0,0,0,1 @ F,0,0,1,0,0,0,1 @ F,0,0,1,0,0,0,1 @ F,0,0,1,0,0,0,1 @ F,0,0,1,0,0,0,1 @ F,0,0,1,0,0,0,1 @ F,0,0,1,0,0,0,1 | F,0,0,1,0,0,0,1 @ F,0,0,1,0,0,0,1 @ F,0,0,1,0,0,0,1 @ F,0,0,1,0,0,0,1 @ F,0,0,1,0,0,0,1 @ F,0,0,1,0,0,0,1 @ F,0,0,1,0,0,0,1 @ F,0,0,1,0,0,0,1 @ F,0,0,1,0,0.051747962,0,1 @ F,0,0,1,0,0,0,1"
       radius="0"
       unit="px"
       method="auto"
       mode="F"
       chamfer_steps="1"
       flexible="false"
       use_knot_distance="true"
       apply_no_radius="true"
       apply_with_radius="true"
       only_selected="false"
       hide_knots="false" />
    <inkscape:path-effect
       effect="fillet_chamfer"
       id="path-effect5"
       is_visible="true"
       lpeversion="1"
       nodesatellites_param="F,0,0,1,0,0,0,1 @ F,0,0,1,0,0,0,1 @ F,0,0,1,0,0,0,1 @ F,0,0,1,0,0,0,1 @ F,0,0,1,0,0,0,1 @ F,0,0,1,0,0,0,1 @ F,0,0,1,0,0,0,1 @ F,0,0,1,0,0,0,1 @ F,0,0,1,0,0,0,1 @ F,0,0,1,0,0,0,1 @ F,0,0,1,0,0,0,1 @ F,0,0,1,0,0,0,1 @ F,0,0,1,0,0,0,1 @ F,0,0,1,0,0,0,1 @ F,0,0,1,0,0,0,1 @ F,0,0,1,0,0,0,1 @ F,0,0,1,0,0,0,1 @ F,0,0,1,0,0,0,1 @ F,0,0,1,0,0,0,1 @ F,0,0,1,0,0,0,1 @ F,0,0,1,0,0,0,1 @ F,0,0,1,0,0,0,1 @ F,0,0,1,0,0,0,1 @ F,0,0,1,0,0,0,1 @ F,0,0,1,0,0,0,1 @ F,0,0,1,0,0,0,1 @ F,0,0,1,0,0,0,1 @ F,0,0,1,0,0,0,1 @ F,0,0,1,0,0,0,1 @ F,0,0,1,0,0,0,1 @ F,0,0,1,0,0,0,1 | F,0,0,1,0,0,0,1 @ F,0,0,1,0,0,0,1 @ F,0,0,1,0,0,0,1 @ F,0,0,1,0,0,0,1 @ F,0,0,1,0,0,0,1 @ F,0,0,1,0,0,0,1 @ F,0,0,1,0,0,0,1 @ F,0,0,1,0,0,0,1 @ F,0,0,1,0,0,0,1 @ F,0,0,1,0,0,0,1 @ F,0,0,1,0,0,0,1 @ F,0,0,1,0,0,0,1 @ F,0,0,1,0,0,0,1 @ F,0,0,1,0,0,0,1 @ F,0,0,1,0,0,0,1 @ F,0,0,1,0,0,0,1 @ F,0,0,1,0,0,0,1 @ F,0,0,1,0,0,0,1 @ F,0,0,1,0,0,0,1 @ F,0,0,1,0,0,0,1 @ F,0,0,1,0,0,0,1 @ F,0,0,1,0,0,0,1 | F,0,0,1,0,0,0,1 @ F,0,0,1,0,0,0,1 @ F,0,0,1,0,0,0,1 @ F,0,0,1,0,0,0,1 @ F,0,0,1,0,0,0,1 @ F,0,0,1,0,0,0,1 @ F,0,0,1,0,0,0,1 @ F,0,0,1,0,0,0,1 @ F,0,0,1,0,0,0,1 @ F,0,0,1,0,0,0,1 @ F,0,0,1,0,0,0,1 @ F,0,0,1,0,0,0,1 @ F,0,0,1,0,0,0,1 @ F,0,0,1,0,0,0,1 @ F,0,0,1,0,0,0,1 @ F,0,0,1,0,0,0,1 @ F,0,0,1,0,0,0,1 | F,0,0,1,0,0,0,1 @ F,0,0,1,0,0,0,1 @ F,0,0,1,0,0,0,1 @ F,0,0,1,0,0,0,1 @ F,0,0,1,0,0,0,1 @ F,0,0,1,0,0,0,1 @ F,0,0,1,0,0,0,1 @ F,0,0,1,0,0,0,1 @ F,0,0,1,0,0,0,1 @ F,0,0,1,0,0,0,1"
       radius="0"
       unit="px"
       method="auto"
       mode="F"
       chamfer_steps="1"
       flexible="false"
       use_knot_distance="true"
       apply_no_radius="true"
       apply_with_radius="true"
       only_selected="false"
       hide_knots="false" />
    <rect
       x="33.035934"
       y="248.92194"
       width="9.987608"
       height="13.060719"
       id="rect5" />
    <rect
       x="-10.755886"
       y="250.4585"
       width="53.77943"
       height="46.864933"
       id="rect4" />
  </defs>
  <sodipodi:namedview
     id="namedview3"
     pagecolor="#ffffff"
     bordercolor="#000000"
     borderopacity="0.25"
     inkscape:showpageshadow="2"
     inkscape:pageopacity="0.0"
     inkscape:pagecheckerboard="true"
     inkscape:deskcolor="#d1d1d1"
     inkscape:zoom="0.46018966"
     inkscape:cx="639.95354"
     inkscape:cy="-40.200817"
     inkscape:window-width="1920"
     inkscape:window-height="1009"
     inkscape:window-x="1912"
     inkscape:window-y="-8"
     inkscape:window-maximized="1"
     inkscape:current-layer="logo-icon"
     showguides="true" />
  <g
     id="logo-icon"
     fill="#1664ab"
     transform="translate(-349.32665,-311.77733)"
     style="mix-blend-mode:normal;fill:#1664ab;fill-opacity:1;stroke:none;stroke-width:2.7;stroke-linecap:round;stroke-linejoin:miter;stroke-dasharray:none;stroke-dashoffset:0;stroke-opacity:1;paint-order:stroke markers fill">
    <path
       fill-rule="evenodd"
       d="m 229.5,12.869 c -3.85,1.021 -17.35731,6.179309 -23,8.566 L 65.785384,80.953155 c -53.001758,19.148465 -32.007911,35.477385 -27.61989,39.184225 9.427542,7.96404 32.74422,15.7485 32.74422,15.7485 0.03037,-0.11391 -30.021682,7.31909 -39.946971,17.97331 -12.040446,14.28117 4.18658,22.67622 4.18658,22.67622 6.810944,5.00649 31.090716,15.13596 31.090716,15.13596 0,0 -27.098399,7.55905 -37.741055,21.25447 -13.227931,17.60095 7.947945,28.29655 19.402464,33.67529 23.024331,10.81162 73.676082,34.18981 154.963252,68.16673 42.81971,17.89805 36.69611,18.63927 101.59565,-10.40493 56.18394,-25.04399 96.34428,-41.86316 156.15561,-70.77525 14.14137,-7.32438 23.09851,-15.31371 16.28543,-24.62931 -3.62139,-4.82367 -17.60184,-10.97634 -27.53838,-15.56395 -12.65109,-5.84089 -18.33657,-8.34791 -18.33657,-8.34791 0,0 33.20945,-13.80195 36.51556,-21.51751 1.37,-3.588 1.46,-4.992 0.506,-7.885 -2.583,-7.825 -4.27589,-9.72217 -26.19689,-18.55717 0.0974,0.0686 -15.90008,-6.48818 -15.90008,-6.48818 0,0 6.13897,-2.97465 13.70997,-6.23865 11.323,-4.882 13.889,-6.373 14.453,-8.398 0.378,-1.354 0.731,-7.231 0.786,-13.06 L 455,92.304 451.25,90.689 C 388.65625,66.273396 263.448,14.017 263.448,14.017 253.55975,10.098601 236.98523,10.416 229.5,12.869 m -2,8.087 C 195.01888,33.703784 111.88762,69.10471 78.954151,83.641514 47.70895,97.561989 37.53245,103.34126 49.226831,112.20855 56.31031,116.7211 151.34092,154.79081 223.62063,182.95493 256.17581,193.28092 243.24291,196.03205 383,134.954 c 0,0 -15.00256,-5.73244 -37.11619,-12.89686 -47.33578,20.01884 -83.71178,26.0891 -83.71178,26.0891 -0.17326,-0.82632 82.5164,-37.41142 84.4274,-37.41842 1.29681,-0.004 5.29638,1.14356 38.22957,11.59018 19.36939,-8.44369 38.76706,-16.82638 57.94764,-25.693434 C 443.02061,97.155205 277.91118,27.909062 258.30239,19.954728 249.24433,16.729233 237.906,17.259 227.5,20.956 m 59,170.092 c -36.12672,14.56522 -40.92977,14.69505 -78.595,-0.61252 -44.63906,-17.42096 -90.27095,-36.004 -136.96611,-54.53363 -0.588693,-0.2336 -24.5688,8.35823 -32.657862,17.47879 -8.089062,9.12056 3.318619,13.28622 23.666671,22.42301 1.392421,0.90563 19.043929,8.37956 147.701911,63.75846 45.3852,17.94562 26.7708,19.27014 104.78967,-13.66982 43.3859,-18.89759 86.06949,-39.38484 129.39872,-58.40229 14.553,-6.359 17.304,-8.689 15.342,-12.994 -1.265,-2.777 -6.254,-6.088 -14.18,-9.411 -8.97211,-3.73331 -17.88043,-7.62473 -26.973,-11.06 M 208.82514,251.52636 c 42.30878,16.94369 33.5414,15.88611 68.71168,2.37118 -0.03,0.1568 145.74694,-65.54389 145.74694,-65.54389 0,0 21.72722,9.15391 36.96522,16.81691 14.11725,7.8579 7.68974,11.58532 -5.99231,17.94466 -68.5311,31.85289 -179.44938,82.04102 -185.71784,84.19949 -29.72959,11.19365 -25.29431,11.12885 -51.29724,0.66376 C 203.85988,302.71433 64.052164,240.90008 52.141335,235.46336 35.188627,227.20187 31.592924,221.4667 32.365711,215.48072 c 0.0037,-0.0283 0.0098,-0.0743 0.01385,-0.10257 1.386497,-9.58923 33.877573,-23.69829 33.877573,-23.69829"
       transform="matrix(0.69417656,0,0,0.69417656,333.26288,304.94601)"
       id="path1"
       sodipodi:nodetypes="cscsccsccsscccscccccccsccscccccccscccccccszccscccccccsccccsc"
       style="fill:#1664ab;fill-opacity:1;stroke:#1664ab;stroke-width:2.30489;stroke-linecap:round;stroke-linejoin:miter;stroke-dasharray:none;stroke-dashoffset:0;stroke-opacity:1;paint-order:stroke markers fill"
       inkscape:original-d="m 229.5,12.869 c -3.85,1.021 -17.35731,6.179309 -23,8.566 L 65.785384,80.953155 c -53.001758,19.148465 -32.007911,35.477385 -27.61989,39.184225 9.427542,7.96404 32.74422,15.7485 32.74422,15.7485 0.03037,-0.11391 -30.021682,7.31909 -39.946971,17.97331 -12.040446,14.28117 4.18658,22.67622 4.18658,22.67622 6.810944,5.00649 31.090716,15.13596 31.090716,15.13596 0,0 -27.098399,7.55905 -37.741055,21.25447 -13.227931,17.60095 7.947945,28.29655 19.402464,33.67529 23.024331,10.81162 73.676082,34.18981 154.963252,68.16673 42.81971,17.89805 36.69611,18.63927 101.59565,-10.40493 56.18394,-25.04399 96.34428,-41.86316 156.15561,-70.77525 14.14137,-7.32438 23.09851,-15.31371 16.28543,-24.62931 -3.62139,-4.82367 -17.60184,-10.97634 -27.53838,-15.56395 -12.65109,-5.84089 -18.33657,-8.34791 -18.33657,-8.34791 0,0 33.20945,-13.80195 36.51556,-21.51751 1.37,-3.588 1.46,-4.992 0.506,-7.885 -2.583,-7.825 -4.27589,-9.72217 -26.19689,-18.55717 0.0974,0.0686 -15.90008,-6.48818 -15.90008,-6.48818 0,0 6.13897,-2.97465 13.70997,-6.23865 11.323,-4.882 13.889,-6.373 14.453,-8.398 0.378,-1.354 0.731,-7.231 0.786,-13.06 L 455,92.304 451.25,90.689 C 388.65625,66.273396 263.448,14.017 263.448,14.017 253.55975,10.098601 236.98523,10.416 229.5,12.869 m -2,8.087 C 195.01888,33.703784 111.88762,69.10471 78.954151,83.641514 47.70895,97.561989 37.53245,103.34126 49.226831,112.20855 56.31031,116.7211 151.34092,154.79081 223.62063,182.95493 256.17581,193.28092 243.24291,196.03205 383,134.954 c 0,0 -15.00256,-5.73244 -37.11619,-12.89686 -47.33578,20.01884 -83.71178,26.0891 -83.71178,26.0891 -0.17326,-0.82632 82.5164,-37.41142 84.4274,-37.41842 1.29681,-0.004 5.29638,1.14356 38.22957,11.59018 19.36939,-8.44369 38.76706,-16.82638 57.94764,-25.693434 C 443.02061,97.155205 277.91118,27.909062 258.30239,19.954728 249.24433,16.729233 237.906,17.259 227.5,20.956 m 59,170.092 c -36.12672,14.56522 -40.92977,14.69505 -78.595,-0.61252 -44.63906,-17.42096 -90.27095,-36.004 -136.96611,-54.53363 -0.588693,-0.2336 -24.5688,8.35823 -32.657862,17.47879 -8.089062,9.12056 3.318619,13.28622 23.666671,22.42301 1.392421,0.90563 19.043929,8.37956 147.701911,63.75846 45.3852,17.94562 26.7708,19.27014 104.78967,-13.66982 43.3859,-18.89759 86.06949,-39.38484 129.39872,-58.40229 14.553,-6.359 17.304,-8.689 15.342,-12.994 -1.265,-2.777 -6.254,-6.088 -14.18,-9.411 -8.97211,-3.73331 -17.88043,-7.62473 -26.973,-11.06 M 208.82514,251.52636 c 42.30878,16.94369 33.5414,15.88611 68.71168,2.37118 -0.03,0.1568 145.74694,-65.54389 145.74694,-65.54389 0,0 21.72722,9.15391 36.96522,16.81691 14.11725,7.8579 7.68974,11.58532 -5.99231,17.94466 -68.5311,31.85289 -179.44938,82.04102 -185.71784,84.19949 -29.72959,11.19365 -25.29431,11.12885 -51.29724,0.66376 C 203.85988,302.71433 64.052164,240.90008 52.141335,235.46336 35.1402,227.17827 31.57249,221.43395 32.37244,215.42941 c 1.277637,-9.59013 33.884693,-23.74955 33.884693,-23.74955"
       inkscape:path-effect="#path-effect6" />
  </g>
  <g
     id="wordmark"
     fill="#1664ab"
     style="display:none;fill:#1664ab;fill-opacity:0.533333"
     transform="translate(-19.643878,-384.36221)">
    <path
       fill-rule="evenodd"
       d="m 24.5,8.93 c -5.439,1.316 -10.402,4.219 -13.977,8.176 -2.99,3.31 -3.522,4.617 -3.519,8.647 0.008,10.165 6.597,14.726 26.496,18.338 13.75,2.497 17.215,3.926 18.104,7.467 2.145,8.546 -16.226,11.349 -29.986,4.575 C 18.118,54.41 14.955,53 14.588,53 14.221,53 11.659,54.523 8.895,56.385 L 3.868,59.77 6.684,61.757 C 20.936,71.812 42.606,73.831 57.59,66.5 64.757,62.994 68.002,58.319 67.993,51.518 67.979,40.6 62.527,37.003 39.116,32.467 26.197,29.963 22.682,28.215 23.206,24.555 c 0.956,-6.684 23.732,-7.446 30.821,-1.03 1.729,1.564 2.109,1.478 6.355,-1.444 2.484,-1.709 4.775,-3.526 5.091,-4.038 C 66.288,16.725 58.035,12.113 50.875,9.884 44.642,7.944 30.666,7.439 24.5,8.93 M 463.25,8.767 438,9.034 v 60.05 l 7.75,-0.292 7.75,-0.292 0.283,-11.225 0.282,-11.225 15.718,-0.275 15.717,-0.275 0.299,-4.602 0.299,-4.603 -6.196,-0.647 C 476.495,35.291 469.273,35 463.853,35 H 454 V 21.046 l 17.75,-0.273 17.75,-0.273 0.307,-5.393 c 0.169,-2.966 -0.056,-5.666 -0.5,-6 C 488.863,8.773 477.137,8.62 463.25,8.767 M 511.75,8.792 504,9.084 V 69 h 52 V 58.046 L 538.25,57.773 520.5,57.5 520.208,33.041 c -0.161,-13.452 -0.386,-24.477 -0.5,-24.5 -0.114,-0.023 -3.695,0.09 -7.958,0.251 M 582.5,9.35 c -7.039,2.324 -11.982,5.364 -16.253,9.998 -5.825,6.319 -7.536,10.724 -7.636,19.658 -0.071,6.282 0.368,8.431 2.692,13.181 4.829,9.87 14.131,15.997 27.247,17.948 18.198,2.707 36.253,-4.897 42.619,-17.949 3.388,-6.945 3.163,-17.943 -0.521,-25.473 -3.269,-6.681 -8.966,-12.042 -16.528,-15.55 -4.809,-2.231 -7.207,-2.645 -16.62,-2.87 -7.106,-0.17 -12.416,0.204 -15,1.057 M 73,15 v 6 h 23 v 19.36 c 0,10.649 0.286,21.449 0.636,24 L 97.272,69 H 113 V 21.063 L 124.75,20.782 136.5,20.5 136.8,14.75 137.1,9 H 73 Z m 74.498,-4.75 c -0.242,0.688 -0.34,14.075 -0.219,29.75 l 0.221,28.5 h 16 l 0.331,-9.5 c 0.183,-5.225 0.633,-9.785 1,-10.133 0.368,-0.348 4.3,-0.407 8.737,-0.132 l 8.069,0.501 6.895,9.882 6.896,9.882 h 8.286 c 5.238,0 8.286,-0.395 8.286,-1.074 0,-0.591 -3.6,-5.645 -8,-11.232 l -7.999,-10.159 4.249,-2.175 c 2.338,-1.197 5.579,-3.575 7.204,-5.285 2.493,-2.625 3.016,-4.096 3.356,-9.436 C 211.468,19.303 207.679,14.558 195.819,10.867 190.769,9.295 186.514,9 168.88,9 153.027,9 147.83,9.304 147.498,10.25 m 97.126,7.504 C 237.335,32.267 221,67.05 221,68.058 221,68.576 224.558,69 228.906,69 h 7.905 l 3.042,-6.5 3.042,-6.5 h 30.818 l 2.894,6.498 2.893,6.497 8.75,0.003 C 293.063,68.999 297,68.793 297,68.539 297,68.286 290.656,55.823 282.901,40.845 275.147,25.866 268.408,12.574 267.926,11.306 267.1,9.133 266.528,9 258.035,9 h -9.015 z m 47.576,-3.004 0.3,5.75 11.75,0.282 11.75,0.281 V 69 h 16 V 21.063 L 343.75,20.782 355.5,20.5 355.8,14.75 356.1,9 h -64.2 z m 78.618,13.5 C 362.094,45.652 352,67.246 352,68.506 352,68.778 355.746,69 360.323,69 h 8.324 l 2.563,-6.25 2.562,-6.25 15.611,-0.275 15.611,-0.276 3.217,6.526 3.218,6.525 h 16.612 l -1.805,-3.75 C 425.243,63.188 418.596,49.7 411.465,35.277 L 398.5,9.055 389.484,9.027 380.469,9 Z m 267.644,-17.5 c 0.372,0.963 4.976,14.462 10.231,30 L 658.247,69 h 16.589 l 6.832,-20.994 c 3.758,-11.547 7.072,-20.997 7.365,-21 0.293,-0.003 3.611,9.444 7.372,20.994 l 6.839,21 h 16.391 l 9.335,-28.75 c 5.134,-15.813 9.547,-29.331 9.805,-30.041 0.366,-1.006 -1.484,-1.226 -8.382,-1 L 721.541,9.5 716.456,29.231 C 711.78,47.374 710,52.772 710,48.808 710,47.969 707.147,38.782 703.66,28.391 L 697.32,9.5 h -17.556 l -3.452,11 c -1.898,6.05 -4.546,14.6 -5.884,19 -1.338,4.4 -2.7,8.675 -3.027,9.5 -0.327,0.825 -2.366,-4.8 -4.531,-12.5 -2.165,-7.7 -4.834,-17.038 -5.931,-20.75 L 654.942,9 h -8.578 c -7.76,0 -8.514,0.167 -7.902,1.75 m -50.807,9.645 C 579.533,23.425 576,29.143 576,39.256 c 0,13.056 6.792,19.766 19.962,19.722 13.584,-0.046 20.868,-6.996 20.994,-20.032 0.065,-6.706 -4.082,-14.459 -9.104,-17.021 -5.189,-2.648 -15.173,-3.404 -20.197,-1.53 M 163.719,26.75 c -0.296,3.163 -0.466,7.1 -0.377,8.75 l 0.163,3 11.542,-0.072 c 9.48,-0.059 12.12,-0.413 14.777,-1.983 3.961,-2.34 6.05,-7.944 4.229,-11.345 -1.788,-3.342 -5.115,-4.1 -17.989,-4.1 h -11.806 z m 88.649,7.5 -5.03,11.25 10.463,0.285 c 5.754,0.157 10.642,0.105 10.863,-0.116 0.495,-0.494 -9.949,-22.536 -10.715,-22.613 -0.303,-0.031 -2.814,5.007 -5.581,11.194 m 132.5,-2.138 C 377.483,47.287 377.06,46 389.433,46 c 5.812,0 10.562,-0.337 10.556,-0.75 -0.006,-0.413 -2.379,-5.657 -5.273,-11.655 l -5.262,-10.904 z m -194.965,73.966 c -9.21,1.427 -13.643,5.803 -10.958,10.819 1.681,3.142 6.231,5.048 14.578,6.106 4.141,0.525 8.47,1.458 9.62,2.073 1.944,1.041 1.975,1.235 0.438,2.772 -2.015,2.014 -12.122,2.146 -17.869,0.233 -3.25,-1.082 -4.142,-1.029 -6.282,0.373 -3.21,2.103 -2.551,3.013 3.685,5.084 6.704,2.227 22.306,1.727 26.224,-0.841 4.55,-2.981 4.831,-9.901 0.512,-12.572 -1.224,-0.756 -6.481,-1.97 -11.684,-2.696 -9.45,-1.32 -11.966,-2.328 -10.745,-4.303 1.16,-1.876 7.446,-2.377 14.092,-1.123 5.158,0.973 6.813,0.971 7.995,-0.011 2.32,-1.925 1.821,-2.709 -2.759,-4.341 -5.458,-1.944 -11.067,-2.468 -16.847,-1.573 m 355,-0.037 c -9.634,1.571 -14.407,6.015 -11.396,10.61 2.148,3.278 6.183,4.88 15.993,6.348 11.19,1.675 13.748,4.049 6.473,6.008 -4.244,1.143 -13.044,0.096 -17.003,-2.023 -1.617,-0.866 -2.634,-0.647 -5.073,1.09 -1.678,1.194 -2.679,2.523 -2.224,2.951 3.619,3.41 22.652,5.318 29.012,2.908 4.613,-1.747 7.315,-4.919 7.315,-8.584 0,-4.6 -2.688,-6.051 -14.498,-7.824 -5.421,-0.813 -10.317,-1.94 -10.879,-2.502 -3.143,-3.143 7.938,-5.066 15.575,-2.703 4.344,1.344 4.822,1.316 6.348,-0.371 0.907,-1.002 1.375,-2.268 1.038,-2.813 -1.551,-2.509 -13.401,-4.283 -20.681,-3.095 M 233,107.091 c 0,0.599 3.15,4.509 7,8.687 5.918,6.423 7.002,8.147 7.014,11.159 0.026,6.884 0.842,8.202 4.866,7.866 l 3.62,-0.303 0.308,-5.417 c 0.295,-5.182 0.632,-5.775 7.75,-13.615 4.093,-4.509 7.442,-8.483 7.442,-8.833 0,-0.35 -1.785,-0.635 -3.968,-0.635 -3.639,0 -4.362,0.49 -8.75,5.931 -2.63,3.262 -5.3,5.962 -5.933,6 -0.633,0.038 -3.49,-2.631 -6.349,-5.931 -4.695,-5.42 -5.575,-6 -9.099,-6 -2.15,0 -3.901,0.49 -3.901,1.091 m 63.386,0.821 c -2.833,1.287 -4.32,2.688 -4.774,4.499 -1.477,5.884 3.267,9.128 15.612,10.676 11.377,1.427 14.074,3.845 6.738,6.042 -3.825,1.146 -9.073,0.67 -17.462,-1.586 -2.876,-0.773 -6.169,1.946 -4.618,3.815 3.021,3.64 20.88,4.921 28.136,2.018 4.49,-1.797 7.209,-5.793 6.301,-9.263 -0.832,-3.182 -5.371,-5.118 -15.599,-6.655 -9.578,-1.439 -11.991,-2.591 -9.865,-4.708 1.611,-1.604 13.85,-1.528 16.885,0.105 1.83,0.984 2.697,0.905 4.741,-0.435 3.16,-2.07 2.652,-2.846 -3.16,-4.826 -6.464,-2.203 -17.728,-2.046 -22.935,0.318 m 50.281,-1.245 c -0.367,0.366 -0.667,1.716 -0.667,3 0,2.221 0.335,2.333 6.966,2.333 h 6.966 l 0.284,10.75 0.284,10.75 4.216,0.306 4.215,0.306 0.285,-10.806 0.284,-10.806 6.75,-0.296 c 6.743,-0.295 6.75,-0.298 6.75,-3.25 V 106 h -17.833 c -9.809,0 -18.134,0.3 -18.5,0.667 M 406,120.492 v 14.491 l 14.25,-0.479 c 7.837,-0.264 15.069,-0.485 16.07,-0.492 1.312,-0.009 1.73,-0.639 1.5,-2.262 -0.307,-2.161 -0.763,-2.261 -11.57,-2.533 L 415,128.934 V 123 h 9.5 c 9.428,0 9.5,-0.019 9.5,-2.462 0,-2.419 -0.165,-2.468 -9.25,-2.75 L 415.5,117.5 415.184,114.75 414.867,112 H 436 v -6 h -30 z m 58.437,-13.189 c -0.275,0.716 -0.373,7.129 -0.218,14.25 l 0.281,12.947 3.75,0.31 3.75,0.311 0.03,-9.311 0.029,-9.31 6.57,7.25 c 3.613,3.987 7.143,7.25 7.844,7.25 0.701,0 3.67,-3.15 6.597,-7 2.927,-3.85 5.684,-7 6.126,-7 0.442,0 0.804,3.825 0.804,8.5 v 8.5 h 8.056 l -0.278,-13.75 -0.278,-13.75 -4.067,-0.299 c -3.965,-0.291 -4.225,-0.107 -10.263,7.25 -3.408,4.152 -6.579,7.549 -7.048,7.549 -0.469,0 -3.645,-3.375 -7.057,-7.5 -5.813,-7.028 -6.453,-7.5 -10.166,-7.5 -2.333,0 -4.167,0.536 -4.462,1.303"
       transform="translate(79,382)"
       id="path2"
       style="fill:#1664ab;fill-opacity:0.533333" />
  </g>
  <text
     xml:space="preserve"
     style="font-size:96px;text-align:start;writing-mode:lr-tb;direction:ltr;text-anchor:start;white-space:pre;inline-size:808.877;display:inline;fill:#1664ab;fill-opacity:1;stroke:none;stroke-width:3.49902;stroke-dasharray:none;stroke-opacity:1"
     x="44.560101"
     y="251.22678"
     id="text3"
     transform="matrix(2.2132084,0,0,1.5095424,239.37525,-268.44001)"><tspan
       x="44.560101"
       y="251.22678"
       id="tspan6"><tspan
         style="font-family:'Microsoft Yi Baiti';-inkscape-font-specification:'Microsoft Yi Baiti';stroke:#1664ab"
         id="tspan1">STRATAFLOW</tspan></tspan></text>
  <text
     xml:space="preserve"
     style="font-size:53.3407px;text-align:start;writing-mode:lr-tb;direction:ltr;text-anchor:start;white-space:pre;inline-size:808.877;display:inline;fill:#1664ab;fill-opacity:1;stroke:#1664ab;stroke-width:0.262283;stroke-dasharray:none;stroke-opacity:1"
     x="44.560101"
     y="251.22678"
     id="text3-9"
     transform="matrix(2.4935366,0,0,1.6192346,226.72548,-230.93654)"
     inkscape:transform-center-x="-25.195552"
     inkscape:transform-center-y="4.5798459"><tspan
       x="44.560101"
       y="251.22678"
       id="tspan8"><tspan
         style="font-family:'Microsoft Yi Baiti';-inkscape-font-specification:'Microsoft Yi Baiti'"
         id="tspan7">SYSTEMS</tspan></tspan></text>
  <text
     xml:space="preserve"
     id="text4"
     style="text-align:start;writing-mode:lr-tb;direction:ltr;white-space:pre;shape-inside:url(#rect4);display:none;fill:#000000"
     transform="translate(-19.643878,-384.36221)" />
  <text
     xml:space="preserve"
     id="text5"
     style="text-align:start;writing-mode:lr-tb;direction:ltr;white-space:pre;shape-inside:url(#rect5);display:none;fill:#000000"
     transform="translate(-19.643878,-384.36221)" />
  <g
     id="g12"
     style="display:none;fill:#1664ab;fill-opacity:1"
     transform="translate(-0.54971123,-0.57393381)">
    <path
       style="fill:#1664ab;fill-opacity:1;stroke:none;stroke-width:1.03717;stroke-linecap:round;stroke-linejoin:miter;stroke-dasharray:none;stroke-dashoffset:0;stroke-opacity:1;paint-order:stroke markers fill"
       d="M 146.16481,211.51082 C 139.59789,209.33747 119.07644,200.49819 61.078067,174.8611 14.884431,154.44207 14.877787,154.43888 10.633839,150.58414 7.4321479,147.67608 6.3440733,144.52805 7.6606513,141.98207 9.2321603,138.9431 15.652068,134.41042 25.060154,129.6974 l 5.363794,-2.68701 48.939202,20.55441 c 70.3863,29.56218 70.27028,29.51714 76.02099,29.50991 4.15418,-0.005 5.07034,-0.26477 15.60571,-4.42103 6.87999,-2.71419 12.02942,-5.00292 71.15363,-31.62515 l 36.24509,-16.32031 8.89122,3.96172 c 16.63904,7.41397 20.39159,9.45825 21.57985,11.7561 0.80381,1.5544 0.14862,2.74071 -2.47692,4.48478 -2.22658,1.47905 -23.06424,11.20065 -63.47941,29.61568 -62.35341,28.41112 -75.51099,34.13286 -85.73498,37.28295 -3.69024,1.13699 -6.93149,1.04903 -11.00352,-0.29863 z"
       id="path10" />
    <path
       style="fill:#1664ab;fill-opacity:1;stroke:none;stroke-width:1.03717;stroke-linecap:round;stroke-linejoin:miter;stroke-dasharray:none;stroke-dashoffset:0;stroke-opacity:1;paint-order:stroke markers fill"
       d="M 149.62206,167.33032 C 144.36266,165.61498 124.48773,157.19898 54.931846,127.23394 14.599253,109.85845 9.795539,107.39921 9.795539,104.1266 c 0,-1.74689 1.787082,-4.06489 4.905954,-6.363444 2.728739,-2.01103 11.463663,-6.497118 16.086407,-8.261666 l 2.745768,-1.048088 43.350884,17.305418 c 45.218628,18.05101 61.912748,24.53544 68.332638,26.54218 10.01977,3.13201 17.31167,2.45032 31.29458,-2.92558 5.62229,-2.16155 33.31985,-14.00731 75.26622,-32.190012 22.49794,-9.7523 22.85126,-9.889638 24.20074,-9.406967 0.75321,0.269401 5.08543,2.035068 9.62715,3.923704 14.03312,5.835553 17.28755,7.884881 17.28755,10.886045 0,1.22623 -0.20527,1.47112 -2.40086,2.86419 -1.32048,0.83783 -7.41388,3.79459 -13.5409,6.57058 -6.12701,2.776 -24.27757,11.01201 -40.33457,18.30225 -32.30099,14.66538 -42.21592,19.07336 -62.61524,27.83749 -15.24271,6.5487 -19.98789,8.43582 -23.41652,9.31256 -3.10082,0.79292 -8.29842,0.72421 -10.96328,-0.14494 z"
       id="path11" />
    <path
       style="fill:#1664ab;fill-opacity:1;stroke:none;stroke-width:1.03717;stroke-linecap:round;stroke-linejoin:miter;stroke-dasharray:none;stroke-dashoffset:0;stroke-opacity:1;paint-order:stroke markers fill"
       d="M 149.42999,123.32291 C 142.9946,121.63236 128.58682,116.089 77.211896,95.537233 35.65523,78.913105 20.043725,72.255926 17.727091,70.171254 16.772493,69.312239 15.94176,67.648888 15.94176,66.596536 c 0,-1.193036 3.127757,-4.106402 6.578551,-6.127629 C 28.263186,57.105142 48.118348,48.273258 87.391574,31.613157 120.41238,17.6054 135.27117,11.535212 144.62825,8.2305495 c 3.52894,-1.2463249 3.84572,-1.2892873 9.60347,-1.3024449 l 5.95415,-0.013606 11.14003,4.4848874 c 10.60635,4.270033 37.80097,15.524132 93.63383,38.748995 13.89142,5.778431 25.25712,10.603422 25.25712,10.722201 0,0.245522 -1.58077,0.963505 -22.99184,10.442859 l -15.50114,6.862835 -11.19651,-3.447027 c -14.24195,-4.384621 -14.75673,-4.503174 -16.84162,-3.878526 -5.09093,1.525282 -57.16158,24.683479 -57.16158,25.422371 0,0.735691 2.96855,0.240842 11.56778,-1.928315 14.29898,-3.606926 27.08492,-7.687182 39.89091,-12.730014 l 6.82961,-2.689413 9.55784,3.307473 c 5.2568,1.819109 10.55179,3.653448 11.76663,4.076308 1.21484,0.42286 2.2088,0.905345 2.2088,1.072197 0,0.582316 -55.71191,25.03054 -68.8701,30.22248 -16.95411,6.68972 -22.40279,7.72686 -30.04564,5.7191 z"
       id="path12" />
  </g>
</svg>
